<mxfile host="app.diagrams.net" modified="2024-04-29T09:05:28.591Z" agent="Mozilla/5.0 (Windows NT 10.0; Win64; x64) AppleWebKit/537.36 (KHTML, like Gecko) Chrome/124.0.0.0 Safari/537.36 Edg/124.0.0.0" etag="4YdEftPLE2pVnmNvLPSM" version="24.3.1" type="device">
  <diagram name="Page-1" id="2YBvvXClWsGukQMizWep">
    <mxGraphModel dx="3493" dy="995" grid="1" gridSize="10" guides="1" tooltips="1" connect="1" arrows="1" fold="1" page="1" pageScale="1" pageWidth="850" pageHeight="1100" math="0" shadow="0">
      <root>
        <mxCell id="0" />
        <mxCell id="1" parent="0" />
        <mxCell id="aM9ryv3xv72pqoxQDRHE-1" value="&lt;font face=&quot;Courier New&quot;&gt;&lt;span style=&quot;background-color: rgb(255, 255, 255); font-size: 14px; white-space: pre;&quot;&gt;UAbilityTask_WaitTargetData&lt;/span&gt;&lt;/font&gt;" style="shape=umlLifeline;perimeter=lifelinePerimeter;whiteSpace=wrap;html=1;container=0;dropTarget=0;collapsible=0;recursiveResize=0;outlineConnect=0;portConstraint=eastwest;newEdgeStyle={&quot;edgeStyle&quot;:&quot;elbowEdgeStyle&quot;,&quot;elbow&quot;:&quot;vertical&quot;,&quot;curved&quot;:0,&quot;rounded&quot;:0};" parent="1" vertex="1">
          <mxGeometry x="-870" y="190" width="240" height="300" as="geometry" />
        </mxCell>
        <mxCell id="aM9ryv3xv72pqoxQDRHE-5" value="&lt;font face=&quot;Courier New&quot;&gt;&lt;span style=&quot;background-color: rgb(255, 255, 255); font-size: 14px; white-space: pre;&quot;&gt;AGameplayAbilityTargetActor_Trace&lt;/span&gt;&lt;/font&gt;" style="shape=umlLifeline;perimeter=lifelinePerimeter;whiteSpace=wrap;html=1;container=0;dropTarget=0;collapsible=0;recursiveResize=0;outlineConnect=0;portConstraint=eastwest;newEdgeStyle={&quot;edgeStyle&quot;:&quot;elbowEdgeStyle&quot;,&quot;elbow&quot;:&quot;vertical&quot;,&quot;curved&quot;:0,&quot;rounded&quot;:0};horizontal=1;verticalAlign=middle;" parent="1" vertex="1">
          <mxGeometry x="-577" y="190" width="305" height="300" as="geometry" />
        </mxCell>
        <mxCell id="KPoSNPF1qZjBJns03yG5-1" value="&lt;div style=&quot;background-color: rgb(255, 255, 255); font-size: 14px; line-height: 19px; white-space: pre;&quot;&gt;&lt;font face=&quot;Courier New&quot;&gt;AGameplayAbilityTargetActor&lt;/font&gt;&lt;/div&gt;" style="shape=umlLifeline;perimeter=lifelinePerimeter;whiteSpace=wrap;html=1;container=0;dropTarget=0;collapsible=0;recursiveResize=0;outlineConnect=0;portConstraint=eastwest;newEdgeStyle={&quot;edgeStyle&quot;:&quot;elbowEdgeStyle&quot;,&quot;elbow&quot;:&quot;vertical&quot;,&quot;curved&quot;:0,&quot;rounded&quot;:0};horizontal=1;verticalAlign=middle;" parent="1" vertex="1">
          <mxGeometry x="-230" y="190" width="280" height="300" as="geometry" />
        </mxCell>
        <mxCell id="m9fb6djSpbv6z9wptkCq-1" value="&lt;div style=&quot;background-color: rgb(255, 255, 255); font-size: 14px; line-height: 19px; white-space: pre;&quot;&gt;&lt;div style=&quot;font-family: Consolas, &amp;quot;Courier New&amp;quot;, monospace; line-height: 19px;&quot;&gt;AGameplayAbilityTargetActor_SingleLineTrace&lt;/div&gt;&lt;/div&gt;" style="shape=umlLifeline;perimeter=lifelinePerimeter;whiteSpace=wrap;html=1;container=0;dropTarget=0;collapsible=0;recursiveResize=0;outlineConnect=0;portConstraint=eastwest;newEdgeStyle={&quot;edgeStyle&quot;:&quot;elbowEdgeStyle&quot;,&quot;elbow&quot;:&quot;vertical&quot;,&quot;curved&quot;:0,&quot;rounded&quot;:0};horizontal=1;verticalAlign=middle;" vertex="1" parent="1">
          <mxGeometry x="80" y="190" width="350" height="300" as="geometry" />
        </mxCell>
        <mxCell id="m9fb6djSpbv6z9wptkCq-3" value="&lt;div style=&quot;background-color: rgb(255, 255, 255); font-family: Consolas, &amp;quot;Courier New&amp;quot;, monospace; font-size: 14px; line-height: 19px; white-space: pre;&quot;&gt;&lt;div style=&quot;line-height: 19px;&quot;&gt;&lt;div style=&quot;line-height: 19px;&quot;&gt;&lt;div style=&quot;line-height: 19px;&quot;&gt;&lt;div style=&quot;line-height: 19px;&quot;&gt;&lt;div style=&quot;line-height: 19px;&quot;&gt;&lt;div style=&quot;line-height: 19px;&quot;&gt;FinalizeTargetActor&lt;/div&gt;&lt;/div&gt;&lt;/div&gt;&lt;/div&gt;&lt;/div&gt;&lt;/div&gt;&lt;/div&gt;" style="rounded=1;whiteSpace=wrap;html=1;" vertex="1" parent="1">
          <mxGeometry x="-860" y="320" width="220" height="330" as="geometry" />
        </mxCell>
        <mxCell id="m9fb6djSpbv6z9wptkCq-6" value="&lt;div style=&quot;background-color: rgb(255, 255, 255); font-family: Consolas, &amp;quot;Courier New&amp;quot;, monospace; font-size: 14px; line-height: 19px; white-space: pre;&quot;&gt;&lt;div style=&quot;line-height: 19px;&quot;&gt;&lt;div style=&quot;line-height: 19px;&quot;&gt;&lt;div style=&quot;line-height: 19px;&quot;&gt;&lt;div style=&quot;line-height: 19px;&quot;&gt;&lt;div style=&quot;line-height: 19px;&quot;&gt;&lt;div style=&quot;line-height: 19px;&quot;&gt;StartTargeting&lt;br&gt;&lt;/div&gt;&lt;/div&gt;&lt;/div&gt;&lt;/div&gt;&lt;/div&gt;&lt;/div&gt;&lt;/div&gt;" style="rounded=1;whiteSpace=wrap;html=1;" vertex="1" parent="1">
          <mxGeometry x="-534.5" y="320" width="220" height="30" as="geometry" />
        </mxCell>
        <mxCell id="m9fb6djSpbv6z9wptkCq-7" value="&lt;div style=&quot;background-color: rgb(255, 255, 255); font-family: Consolas, &amp;quot;Courier New&amp;quot;, monospace; font-size: 14px; line-height: 19px; white-space: pre;&quot;&gt;&lt;div style=&quot;line-height: 19px;&quot;&gt;&lt;div style=&quot;line-height: 19px;&quot;&gt;&lt;div style=&quot;line-height: 19px;&quot;&gt;&lt;div style=&quot;line-height: 19px;&quot;&gt;&lt;div style=&quot;line-height: 19px;&quot;&gt;&lt;div style=&quot;line-height: 19px;&quot;&gt;&lt;div style=&quot;line-height: 19px;&quot;&gt;ConfirmTargeting&lt;/div&gt;&lt;/div&gt;&lt;/div&gt;&lt;/div&gt;&lt;/div&gt;&lt;/div&gt;&lt;/div&gt;&lt;/div&gt;" style="rounded=1;whiteSpace=wrap;html=1;" vertex="1" parent="1">
          <mxGeometry x="-200" y="380" width="220" height="60" as="geometry" />
        </mxCell>
        <mxCell id="m9fb6djSpbv6z9wptkCq-8" value="&lt;div style=&quot;background-color: rgb(255, 255, 255); font-family: Consolas, &amp;quot;Courier New&amp;quot;, monospace; font-size: 14px; line-height: 19px; white-space: pre;&quot;&gt;&lt;div style=&quot;line-height: 19px;&quot;&gt;&lt;div style=&quot;line-height: 19px;&quot;&gt;&lt;div style=&quot;line-height: 19px;&quot;&gt;&lt;div style=&quot;line-height: 19px;&quot;&gt;&lt;div style=&quot;line-height: 19px;&quot;&gt;&lt;div style=&quot;line-height: 19px;&quot;&gt;&lt;div style=&quot;line-height: 19px;&quot;&gt;&lt;div style=&quot;line-height: 19px;&quot;&gt;ConfirmTargetingAndContinue&lt;/div&gt;&lt;/div&gt;&lt;/div&gt;&lt;/div&gt;&lt;/div&gt;&lt;/div&gt;&lt;/div&gt;&lt;/div&gt;&lt;/div&gt;" style="rounded=1;whiteSpace=wrap;html=1;" vertex="1" parent="1">
          <mxGeometry x="-534.5" y="440" width="220" height="100" as="geometry" />
        </mxCell>
        <mxCell id="m9fb6djSpbv6z9wptkCq-9" value="&lt;div style=&quot;background-color: rgb(255, 255, 255); font-family: Consolas, &amp;quot;Courier New&amp;quot;, monospace; font-size: 14px; line-height: 19px; white-space: pre;&quot;&gt;&lt;div style=&quot;line-height: 19px;&quot;&gt;&lt;div style=&quot;line-height: 19px;&quot;&gt;&lt;div style=&quot;line-height: 19px;&quot;&gt;&lt;div style=&quot;line-height: 19px;&quot;&gt;&lt;div style=&quot;line-height: 19px;&quot;&gt;&lt;div style=&quot;line-height: 19px;&quot;&gt;&lt;div style=&quot;line-height: 19px;&quot;&gt;&lt;div style=&quot;line-height: 19px;&quot;&gt;&lt;div style=&quot;line-height: 19px;&quot;&gt;PerformTrace&lt;/div&gt;&lt;/div&gt;&lt;/div&gt;&lt;/div&gt;&lt;/div&gt;&lt;/div&gt;&lt;/div&gt;&lt;/div&gt;&lt;/div&gt;&lt;/div&gt;" style="rounded=1;whiteSpace=wrap;html=1;" vertex="1" parent="1">
          <mxGeometry x="145" y="472" width="220" height="518" as="geometry" />
        </mxCell>
        <mxCell id="m9fb6djSpbv6z9wptkCq-10" value="&lt;div style=&quot;background-color: rgb(255, 255, 255); font-family: Consolas, &amp;quot;Courier New&amp;quot;, monospace; font-size: 14px; line-height: 19px; white-space: pre;&quot;&gt;&lt;div style=&quot;line-height: 19px;&quot;&gt;&lt;div style=&quot;line-height: 19px;&quot;&gt;&lt;div style=&quot;line-height: 19px;&quot;&gt;&lt;div style=&quot;line-height: 19px;&quot;&gt;&lt;div style=&quot;line-height: 19px;&quot;&gt;&lt;div style=&quot;line-height: 19px;&quot;&gt;&lt;div style=&quot;line-height: 19px;&quot;&gt;&lt;div style=&quot;line-height: 19px;&quot;&gt;&lt;div style=&quot;line-height: 19px;&quot;&gt;AimWithPlayerController&lt;/div&gt;&lt;/div&gt;&lt;/div&gt;&lt;/div&gt;&lt;/div&gt;&lt;/div&gt;&lt;/div&gt;&lt;/div&gt;&lt;/div&gt;&lt;/div&gt;" style="rounded=1;whiteSpace=wrap;html=1;" vertex="1" parent="1">
          <mxGeometry x="-534.5" y="576" width="220" height="180" as="geometry" />
        </mxCell>
        <mxCell id="m9fb6djSpbv6z9wptkCq-11" value="&lt;div style=&quot;background-color: rgb(255, 255, 255); font-family: Consolas, &amp;quot;Courier New&amp;quot;, monospace; font-size: 14px; line-height: 19px; white-space: pre;&quot;&gt;&lt;div style=&quot;line-height: 19px;&quot;&gt;&lt;div style=&quot;line-height: 19px;&quot;&gt;&lt;div style=&quot;line-height: 19px;&quot;&gt;&lt;div style=&quot;line-height: 19px;&quot;&gt;&lt;div style=&quot;line-height: 19px;&quot;&gt;&lt;div style=&quot;line-height: 19px;&quot;&gt;&lt;div style=&quot;line-height: 19px;&quot;&gt;&lt;div style=&quot;line-height: 19px;&quot;&gt;&lt;div style=&quot;line-height: 19px;&quot;&gt;&lt;div style=&quot;line-height: 19px;&quot;&gt;ClipCameraRayToAbilityRange&lt;/div&gt;&lt;/div&gt;&lt;/div&gt;&lt;/div&gt;&lt;/div&gt;&lt;/div&gt;&lt;/div&gt;&lt;/div&gt;&lt;/div&gt;&lt;/div&gt;&lt;/div&gt;" style="rounded=1;whiteSpace=wrap;html=1;" vertex="1" parent="1">
          <mxGeometry x="-534.5" y="796" width="220" height="30" as="geometry" />
        </mxCell>
        <mxCell id="m9fb6djSpbv6z9wptkCq-12" value="" style="endArrow=classic;html=1;rounded=0;exitX=1;exitY=0;exitDx=0;exitDy=0;" edge="1" parent="1" source="m9fb6djSpbv6z9wptkCq-3">
          <mxGeometry width="50" height="50" relative="1" as="geometry">
            <mxPoint x="-640" y="335" as="sourcePoint" />
            <mxPoint x="-530" y="320" as="targetPoint" />
          </mxGeometry>
        </mxCell>
        <mxCell id="m9fb6djSpbv6z9wptkCq-13" value="" style="endArrow=open;html=1;rounded=0;exitX=0;exitY=1;exitDx=0;exitDy=0;dashed=1;curved=0;startArrow=none;startFill=0;endFill=0;" edge="1" parent="1" source="m9fb6djSpbv6z9wptkCq-6">
          <mxGeometry width="50" height="50" relative="1" as="geometry">
            <mxPoint x="-190" y="500" as="sourcePoint" />
            <mxPoint x="-640" y="350" as="targetPoint" />
          </mxGeometry>
        </mxCell>
        <mxCell id="m9fb6djSpbv6z9wptkCq-14" value="" style="endArrow=classic;html=1;rounded=0;exitX=1;exitY=0;exitDx=0;exitDy=0;entryX=0;entryY=0;entryDx=0;entryDy=0;" edge="1" parent="1" target="m9fb6djSpbv6z9wptkCq-7">
          <mxGeometry width="50" height="50" relative="1" as="geometry">
            <mxPoint x="-640" y="380" as="sourcePoint" />
            <mxPoint x="-530" y="380" as="targetPoint" />
          </mxGeometry>
        </mxCell>
        <mxCell id="m9fb6djSpbv6z9wptkCq-18" value="" style="endArrow=classic;html=1;rounded=0;exitX=0;exitY=1;exitDx=0;exitDy=0;entryX=1;entryY=0;entryDx=0;entryDy=0;" edge="1" parent="1" source="m9fb6djSpbv6z9wptkCq-7" target="m9fb6djSpbv6z9wptkCq-8">
          <mxGeometry width="50" height="50" relative="1" as="geometry">
            <mxPoint x="-201" y="410" as="sourcePoint" />
            <mxPoint x="-300" y="440" as="targetPoint" />
          </mxGeometry>
        </mxCell>
        <mxCell id="m9fb6djSpbv6z9wptkCq-19" value="" style="endArrow=classic;html=1;rounded=0;exitX=1;exitY=0;exitDx=0;exitDy=0;entryX=0;entryY=0;entryDx=0;entryDy=0;" edge="1" parent="1" target="m9fb6djSpbv6z9wptkCq-9">
          <mxGeometry width="50" height="50" relative="1" as="geometry">
            <mxPoint x="-316" y="472" as="sourcePoint" />
            <mxPoint x="129" y="472" as="targetPoint" />
          </mxGeometry>
        </mxCell>
        <mxCell id="m9fb6djSpbv6z9wptkCq-20" value="" style="endArrow=classic;html=1;rounded=0;entryX=1;entryY=0;entryDx=0;entryDy=0;exitX=0;exitY=0.167;exitDx=0;exitDy=0;exitPerimeter=0;" edge="1" parent="1" target="m9fb6djSpbv6z9wptkCq-10">
          <mxGeometry width="50" height="50" relative="1" as="geometry">
            <mxPoint x="145" y="577.1599999999999" as="sourcePoint" />
            <mxPoint x="-250" y="579" as="targetPoint" />
          </mxGeometry>
        </mxCell>
        <mxCell id="m9fb6djSpbv6z9wptkCq-23" value="" style="endArrow=classic;html=1;rounded=0;exitX=1;exitY=0.25;exitDx=0;exitDy=0;entryX=1;entryY=0;entryDx=0;entryDy=0;edgeStyle=orthogonalEdgeStyle;" edge="1" parent="1" source="m9fb6djSpbv6z9wptkCq-10" target="m9fb6djSpbv6z9wptkCq-11">
          <mxGeometry width="50" height="50" relative="1" as="geometry">
            <mxPoint x="-190" y="606" as="sourcePoint" />
            <mxPoint x="-140" y="556" as="targetPoint" />
            <Array as="points">
              <mxPoint x="-314" y="604" />
              <mxPoint x="-280" y="604" />
              <mxPoint x="-280" y="796" />
            </Array>
          </mxGeometry>
        </mxCell>
        <mxCell id="m9fb6djSpbv6z9wptkCq-24" value="&lt;div style=&quot;background-color: rgb(255, 255, 255); font-family: Consolas, &amp;quot;Courier New&amp;quot;, monospace; font-size: 14px; line-height: 19px; white-space: pre;&quot;&gt;&lt;div style=&quot;line-height: 19px;&quot;&gt;&lt;div style=&quot;line-height: 19px;&quot;&gt;&lt;div style=&quot;line-height: 19px;&quot;&gt;&lt;div style=&quot;line-height: 19px;&quot;&gt;&lt;div style=&quot;line-height: 19px;&quot;&gt;&lt;div style=&quot;line-height: 19px;&quot;&gt;&lt;div style=&quot;line-height: 19px;&quot;&gt;&lt;div style=&quot;line-height: 19px;&quot;&gt;&lt;div style=&quot;line-height: 19px;&quot;&gt;LineTraceWithFilter&lt;/div&gt;&lt;/div&gt;&lt;/div&gt;&lt;/div&gt;&lt;/div&gt;&lt;/div&gt;&lt;/div&gt;&lt;/div&gt;&lt;/div&gt;&lt;/div&gt;" style="rounded=1;whiteSpace=wrap;html=1;" vertex="1" parent="1">
          <mxGeometry x="-534.5" y="856" width="220" height="30" as="geometry" />
        </mxCell>
        <mxCell id="m9fb6djSpbv6z9wptkCq-26" value="" style="endArrow=classic;html=1;rounded=0;exitX=1.002;exitY=0.708;exitDx=0;exitDy=0;edgeStyle=orthogonalEdgeStyle;entryX=1;entryY=0;entryDx=0;entryDy=0;exitPerimeter=0;" edge="1" parent="1" source="m9fb6djSpbv6z9wptkCq-10" target="m9fb6djSpbv6z9wptkCq-24">
          <mxGeometry width="50" height="50" relative="1" as="geometry">
            <mxPoint x="-313.5" y="646" as="sourcePoint" />
            <mxPoint x="-315" y="786" as="targetPoint" />
            <Array as="points">
              <mxPoint x="-314" y="668" />
              <mxPoint x="-200" y="668" />
              <mxPoint x="-200" y="856" />
            </Array>
          </mxGeometry>
        </mxCell>
        <mxCell id="m9fb6djSpbv6z9wptkCq-27" value="" style="endArrow=open;html=1;rounded=0;dashed=1;startArrow=none;startFill=0;endFill=0;edgeStyle=orthogonalEdgeStyle;entryX=0.998;entryY=0.874;entryDx=0;entryDy=0;entryPerimeter=0;exitX=1;exitY=1;exitDx=0;exitDy=0;" edge="1" parent="1" source="m9fb6djSpbv6z9wptkCq-24">
          <mxGeometry width="50" height="50" relative="1" as="geometry">
            <mxPoint x="-270" y="907" as="sourcePoint" />
            <mxPoint x="-314.9399999999996" y="689.6200000000001" as="targetPoint" />
            <Array as="points">
              <mxPoint x="-314" y="887" />
              <mxPoint x="-180" y="887" />
              <mxPoint x="-180" y="690" />
            </Array>
          </mxGeometry>
        </mxCell>
        <mxCell id="m9fb6djSpbv6z9wptkCq-28" value="" style="endArrow=open;html=1;rounded=0;exitX=1;exitY=1;exitDx=0;exitDy=0;dashed=1;startArrow=none;startFill=0;endFill=0;edgeStyle=orthogonalEdgeStyle;" edge="1" parent="1" source="m9fb6djSpbv6z9wptkCq-11">
          <mxGeometry width="50" height="50" relative="1" as="geometry">
            <mxPoint x="-314.5" y="756" as="sourcePoint" />
            <mxPoint x="-314" y="626" as="targetPoint" />
            <Array as="points">
              <mxPoint x="-260" y="826" />
              <mxPoint x="-260" y="626" />
            </Array>
          </mxGeometry>
        </mxCell>
        <mxCell id="m9fb6djSpbv6z9wptkCq-29" value="" style="endArrow=open;html=1;rounded=0;endFill=0;dashed=1;exitX=1;exitY=1;exitDx=0;exitDy=0;" edge="1" parent="1" source="m9fb6djSpbv6z9wptkCq-10">
          <mxGeometry width="50" height="50" relative="1" as="geometry">
            <mxPoint x="-70" y="696" as="sourcePoint" />
            <mxPoint x="140" y="756" as="targetPoint" />
          </mxGeometry>
        </mxCell>
        <mxCell id="m9fb6djSpbv6z9wptkCq-30" value="" style="endArrow=classic;html=1;rounded=0;entryX=1;entryY=0;entryDx=0;entryDy=0;exitX=-0.004;exitY=0.874;exitDx=0;exitDy=0;exitPerimeter=0;" edge="1" parent="1" target="m9fb6djSpbv6z9wptkCq-34">
          <mxGeometry width="50" height="50" relative="1" as="geometry">
            <mxPoint x="144.1199999999999" y="916.52" as="sourcePoint" />
            <mxPoint x="-260" y="937" as="targetPoint" />
          </mxGeometry>
        </mxCell>
        <mxCell id="m9fb6djSpbv6z9wptkCq-31" value="" style="endArrow=open;html=1;rounded=0;endFill=0;dashed=1;exitX=1;exitY=1;exitDx=0;exitDy=0;entryX=0.003;entryY=0.913;entryDx=0;entryDy=0;entryPerimeter=0;" edge="1" parent="1" source="m9fb6djSpbv6z9wptkCq-34" target="m9fb6djSpbv6z9wptkCq-9">
          <mxGeometry width="50" height="50" relative="1" as="geometry">
            <mxPoint x="90.65999999999894" y="967" as="sourcePoint" />
            <mxPoint x="-316.1000000000008" y="944.8399999999999" as="targetPoint" />
          </mxGeometry>
        </mxCell>
        <mxCell id="m9fb6djSpbv6z9wptkCq-33" value="" style="endArrow=open;html=1;rounded=0;dashed=1;startArrow=none;startFill=0;endFill=0;edgeStyle=orthogonalEdgeStyle;exitX=0;exitY=1;exitDx=0;exitDy=0;entryX=0.995;entryY=0.588;entryDx=0;entryDy=0;entryPerimeter=0;" edge="1" parent="1" source="m9fb6djSpbv6z9wptkCq-9">
          <mxGeometry width="50" height="50" relative="1" as="geometry">
            <mxPoint x="100" y="954" as="sourcePoint" />
            <mxPoint x="-315.5999999999999" y="500.79999999999995" as="targetPoint" />
            <Array as="points">
              <mxPoint x="70" y="990" />
              <mxPoint x="70" y="502" />
              <mxPoint x="-316" y="502" />
            </Array>
          </mxGeometry>
        </mxCell>
        <mxCell id="m9fb6djSpbv6z9wptkCq-34" value="&lt;div style=&quot;background-color: rgb(255, 255, 255); font-family: Consolas, &amp;quot;Courier New&amp;quot;, monospace; font-size: 14px; line-height: 19px; white-space: pre;&quot;&gt;&lt;div style=&quot;line-height: 19px;&quot;&gt;&lt;div style=&quot;line-height: 19px;&quot;&gt;&lt;div style=&quot;line-height: 19px;&quot;&gt;&lt;div style=&quot;line-height: 19px;&quot;&gt;&lt;div style=&quot;line-height: 19px;&quot;&gt;&lt;div style=&quot;line-height: 19px;&quot;&gt;&lt;div style=&quot;line-height: 19px;&quot;&gt;&lt;div style=&quot;line-height: 19px;&quot;&gt;&lt;div style=&quot;line-height: 19px;&quot;&gt;LineTraceWithFilter&lt;/div&gt;&lt;/div&gt;&lt;/div&gt;&lt;/div&gt;&lt;/div&gt;&lt;/div&gt;&lt;/div&gt;&lt;/div&gt;&lt;/div&gt;&lt;/div&gt;" style="rounded=1;whiteSpace=wrap;html=1;" vertex="1" parent="1">
          <mxGeometry x="-535" y="917" width="220" height="30" as="geometry" />
        </mxCell>
      </root>
    </mxGraphModel>
  </diagram>
</mxfile>
